<svg width="105" height="105" viewBox="0 0 105 105" fill="none" xmlns="http://www.w3.org/2000/svg">
<circle cx="52.5" cy="52.5" r="52.5" fill="#D9D9D9"/>
<circle cx="52.5" cy="52.5" r="52.5" fill="url(#paint0_linear_677_23)"/>
<path d="M31.5335 74.4667H45.8433C42.7728 72.7532 41.2579 69.9824 40.5472 68.1125L33.0798 71.2551C32.1399 71.6515 31.5327 72.5684 31.5327 73.5927V74.4667H31.5335Z" fill="white"/>
<path d="M50.9853 65.2667H55.0149C55.4887 65.2667 55.9334 65.0827 56.2684 64.7476L60.3241 60.692C61.0677 59.9483 61.5454 58.97 61.6688 57.9373L62.0299 55.0585C62.069 54.7465 62.2952 54.4896 62.5995 54.4107L62.818 54.3547C63.942 54.0772 64.7822 53.1158 64.9156 51.9612L65.2622 48.8355C65.2882 48.5901 65.1985 48.3525 65.0153 48.1853C64.908 48.0887 64.6757 47.9362 64.3284 48.0082C63.9841 48.0788 63.7342 48.4023 63.7342 48.7772C63.7342 49.2012 63.3915 49.5439 62.9675 49.5439C62.5436 49.5439 62.2009 49.2012 62.2009 48.7772V46.5424C62.2009 45.1532 61.6757 42.9321 61.0555 41.6901L60.2597 40.0993C59.2193 40.3362 56.8925 40.7333 53.0009 40.7333C49.1093 40.7333 46.7832 40.3354 45.7421 40.0993L45.0912 41.3996C44.4081 42.7635 43.8338 45.1731 43.8055 46.7432C44.5453 46.6566 45.6692 46.5769 47.0232 46.6627C49.7517 46.8337 51.1501 47.3834 51.6577 47.6333H52.2334C52.2334 47.2094 52.5761 46.8667 53.0001 46.8667C53.4241 46.8667 53.7668 47.2094 53.7668 47.6333V49.1667C53.7668 49.5906 53.4241 49.9333 53.0001 49.9333C52.5761 49.9333 52.2334 49.5906 52.2334 49.1667H52.0602C51.6899 50.5582 51.3326 51.5901 51.0857 52.2372C50.7377 53.1503 49.8491 53.7559 48.8647 53.7559H48.8172C46.9917 53.7184 45.6631 53.6003 44.8696 53.5068C43.9036 53.3948 43.094 52.7662 42.7567 51.8661C42.4316 50.9998 42.2668 49.9609 42.2668 48.7772C42.2668 48.4023 42.0168 48.0788 41.6734 48.0082C41.6097 47.9952 41.5507 47.9898 41.4955 47.9898C41.2448 47.9898 41.0731 48.1064 40.9857 48.1861C40.8024 48.3532 40.7127 48.5901 40.7388 48.8393L41.0861 51.9658C41.2187 53.1165 42.0598 54.0779 43.1768 54.3539L43.4022 54.4114C43.7066 54.4904 43.9327 54.7472 43.9718 55.0593L44.3322 57.9343C44.4564 58.9708 44.934 59.9491 45.6777 60.6927L49.7333 64.7484C50.0684 65.0834 50.513 65.2674 50.9868 65.2674L50.9853 65.2667ZM53.0001 45.3333C52.5761 45.3333 52.2334 44.9906 52.2334 44.5667V43.0333C52.2334 42.6094 52.5761 42.2667 53.0001 42.2667C53.4241 42.2667 53.7668 42.6094 53.7668 43.0333V44.5667C53.7668 44.9906 53.4241 45.3333 53.0001 45.3333ZM52.2334 52.2333C52.2334 51.8094 52.5761 51.4667 53.0001 51.4667C53.4241 51.4667 53.7668 51.8094 53.7668 52.2333V53.7667C53.7668 54.1906 53.4241 54.5333 53.0001 54.5333C52.5761 54.5333 52.2334 54.1906 52.2334 53.7667V52.2333ZM52.2334 56.8333C52.2334 56.4094 52.5761 56.0667 53.0001 56.0667C53.4241 56.0667 53.7668 56.4094 53.7668 56.8333V58.3667C53.7668 58.7906 53.4241 59.1333 53.0001 59.1333C52.5761 59.1333 52.2334 58.7906 52.2334 58.3667V56.8333ZM52.2334 61.4333C52.2334 61.0094 52.5761 60.6667 53.0001 60.6667C53.4241 60.6667 53.7668 61.0094 53.7668 61.4333V62.9667C53.7668 63.3906 53.4241 63.7333 53.0001 63.7333C52.5761 63.7333 52.2334 63.3906 52.2334 62.9667V61.4333Z" fill="white"/>
<path d="M52.2332 74.4667H53.7666C60.4795 74.4667 63.0954 70.0261 64.0384 67.5176L61.0438 66.2572C60.3568 65.9643 59.8953 65.3311 59.834 64.6027L59.7197 63.4642L57.3523 65.8317C56.7282 66.4558 55.8987 66.8 55.0147 66.8H53.7666V67.5667C53.7666 67.9906 53.4239 68.3333 52.9999 68.3333C52.5759 68.3333 52.2332 67.9906 52.2332 67.5667V66.8H50.9851C50.1019 66.8 49.2724 66.4565 48.6475 65.8317L46.2801 63.4642L46.1651 64.6142C46.1045 65.3311 45.6422 65.9643 44.9599 66.2557L41.9614 67.5176C42.9044 70.0261 45.5195 74.4667 52.2332 74.4667ZM52.2332 70.6333C52.2332 70.2094 52.5759 69.8667 52.9999 69.8667C53.4239 69.8667 53.7666 70.2094 53.7666 70.6333V72.1667C53.7666 72.5906 53.4239 72.9333 52.9999 72.9333C52.5759 72.9333 52.2332 72.5906 52.2332 72.1667V70.6333Z" fill="white"/>
<path d="M57.3601 31.5494C54.3617 31.6361 51.7979 31.8722 49.2932 32.2893C46.1752 32.8098 44.3306 32.3307 43.3631 31.8745C42.6493 33.5581 42.5343 34.9987 43.0211 36.164C43.7326 37.8652 45.5465 38.4632 45.5649 38.4686V38.4709C45.5649 38.4709 45.5726 38.4709 45.5772 38.4724C45.5956 38.4778 47.6426 39.1256 52.2349 39.1931V38.4333C52.2349 38.0094 52.5776 37.6667 53.0016 37.6667C53.4256 37.6667 53.7683 38.0094 53.7683 38.4333V39.1931C58.3598 39.1264 60.4076 38.4786 60.4283 38.4724C60.7917 38.3528 61.1842 38.5177 61.3544 38.8573L62.4278 41.0047C63.1607 42.4706 63.7349 44.9032 63.7349 46.5431V46.5861C63.8269 46.5539 63.922 46.5278 64.0201 46.5071C64.1666 46.4764 64.3115 46.4711 64.4564 46.468C64.7354 46.0433 65.2683 44.9807 65.2683 43.0341V39.2161C65.2683 37.1269 64.4426 35.175 62.9445 33.7191C61.4411 32.2594 59.4723 31.4835 57.3616 31.551L57.3601 31.5494ZM53.7667 35.3667C53.7667 35.7906 53.424 36.1333 53.0001 36.1333C52.5761 36.1333 52.2334 35.7906 52.2334 35.3667V33.8333C52.2334 33.4094 52.5761 33.0667 53.0001 33.0667C53.424 33.0667 53.7667 33.4094 53.7667 33.8333V35.3667Z" fill="white"/>
<path d="M45.0464 51.9842C45.8077 52.0731 47.0834 52.1873 48.8475 52.2234H48.8644C49.2148 52.2234 49.5299 52.0118 49.6518 51.6913C49.8818 51.0895 50.2137 50.1327 50.561 48.8378C49.9676 48.6246 48.8123 48.3118 46.927 48.1938C45.5731 48.1087 44.4507 48.2053 43.7998 48.2888V48.778C43.7998 50.0223 44.0129 50.8518 44.1923 51.3287C44.3265 51.6882 44.6546 51.9389 45.0464 51.9842Z" fill="white"/>
<path d="M72.919 71.2559L65.4524 68.1133C64.7417 69.9832 63.2268 72.7539 60.1562 74.4674H74.4661V73.5934C74.4661 72.5692 73.8597 71.6522 72.919 71.2559Z" fill="white"/>
<path d="M41.6135 36.7758C41.5491 36.624 41.5024 36.4661 41.4533 36.3097C40.9833 37.1952 40.7334 38.1872 40.7334 39.2153V43.0333C40.7334 44.6027 41.1627 45.7305 41.5944 46.4718C41.7232 46.4772 41.852 46.4795 41.9823 46.5063C42.0812 46.5263 42.1778 46.5539 42.2721 46.5861C42.3334 44.7974 42.959 42.2329 43.7196 40.7134L44.2884 39.5764C43.4735 39.1486 42.2568 38.293 41.6143 36.7758H41.6135Z" fill="white"/>
<defs>
<linearGradient id="paint0_linear_677_23" x1="52.5028" y1="105.005" x2="52.5028" y2="0.00469387" gradientUnits="userSpaceOnUse">
<stop stop-color="#2166B0"/>
<stop offset="1" stop-color="#19C1F2"/>
</linearGradient>
</defs>
</svg>
