<svg width="105" height="105" viewBox="0 0 105 105" fill="none" xmlns="http://www.w3.org/2000/svg">
<circle cx="52.5" cy="52.5" r="52.5" fill="#D9D9D9"/>
<circle cx="52.5" cy="52.5" r="52.5" fill="url(#paint0_linear_677_24)"/>
<g clip-path="url(#clip0_677_24)">
<path d="M54.6428 44.7857C54.6428 42.9712 52.436 41.5 49.7142 41.5C46.9924 41.5 44.7856 42.9712 44.7856 44.7857C44.7856 46.6002 46.9924 48.0714 49.7142 48.0714C52.436 48.0714 54.6428 46.6002 54.6428 44.7857Z" fill="white"/>
<path d="M54.6428 34.789C54.2922 34.6659 53.9754 34.4625 53.7171 34.195C53.456 33.9411 53.2582 33.6298 53.1387 33.2857H46.2889C46.1658 33.6363 45.9624 33.9531 45.6949 34.2114C45.4406 34.4713 45.1294 34.6683 44.7856 34.7866V41.5337C46.181 40.4143 47.9258 39.821 49.7142 39.8571C51.5031 39.8218 53.2478 40.4167 54.6428 41.5369V34.789ZM50.5356 37.3929H48.8928V35.75H50.5356V37.3929Z" fill="white"/>
<path d="M44.7856 48.0345V54.7824C45.1362 54.9056 45.4531 55.1089 45.7114 55.3764C45.9713 55.6307 46.1682 55.942 46.2865 56.2857H51.0161C51.39 54.5843 52.9009 53.375 54.6428 53.3826V48.0345C53.2478 49.1548 51.5031 49.7496 49.7142 49.7143C47.9254 49.7496 46.1806 49.1548 44.7856 48.0345ZM50.5356 53.8214H48.8928V52.1786H50.5356V53.8214Z" fill="white"/>
<path d="M51.0194 57.9286H45.6071C45.1535 57.9286 44.7857 57.5608 44.7857 57.1071C44.7877 56.8934 44.7027 56.6876 44.5499 56.538C44.3979 56.3764 44.1861 56.2853 43.9643 56.2857C43.5107 56.2857 43.1429 55.9179 43.1429 55.4643V34.1071C43.1429 33.6535 43.5107 33.2857 43.9643 33.2857C44.1781 33.2877 44.3838 33.2027 44.5334 33.0499C44.6951 32.8979 44.7861 32.6861 44.7857 32.4643C44.7857 32.0107 45.1535 31.6429 45.6071 31.6429H53.8214C54.2751 31.6429 54.6429 32.0107 54.6429 32.4643C54.6409 32.6781 54.7259 32.8838 54.8787 33.0334C55.0307 33.1951 55.2425 33.2861 55.4643 33.2857C55.9179 33.2857 56.2857 33.6535 56.2857 34.1071V53.7813C56.6519 53.9558 56.9868 54.1896 57.2772 54.4728L57.9286 55.1242V30H41.5V59.5714H51.8697C51.4514 59.105 51.1586 58.5394 51.0194 57.9286Z" fill="white"/>
<path d="M62.0356 37.3929C62.0356 36.032 60.9322 34.9286 59.5713 34.9286V38.2143H62.0356V37.3929Z" fill="white"/>
<path d="M62.0356 39.8571H59.5713V56.767L62.0356 59.2313V39.8571Z" fill="white"/>
<path d="M53.4813 61.2143H41.5V62.8571H55.1242L53.4813 61.2143Z" fill="white"/>
<path d="M57.7643 67.7857H40.6788C40.2252 67.7857 39.8574 67.4179 39.8574 66.9643V39.8571H37.3931V69.4286H57.2373C57.3576 68.8646 57.5341 68.3143 57.7643 67.7857Z" fill="white"/>
<path d="M37.3931 71.0714V73.5357C37.3931 74.8966 38.4965 76 39.8574 76H58.5713C57.5714 74.5525 57.0464 72.8302 57.068 71.0714H37.3931ZM50.5359 74.3571H48.8931V72.7143H50.5359V74.3571Z" fill="white"/>
<path d="M66.7778 56.3828L63.6786 52.7593V60.8742L65.9023 63.0978L64.7407 64.2593L56.1157 55.6343C55.2987 54.8426 53.9976 54.853 53.193 55.6572C52.3888 56.4618 52.3784 57.7629 53.1701 58.5799L60.1523 65.5621C60.413 65.8236 60.4671 66.2267 60.2846 66.548L59.6084 67.7316C58.1901 70.1926 58.4304 73.2726 60.2128 75.4842C60.3299 75.6306 60.3937 75.8127 60.3929 76H68.6072V61.2512C68.6072 59.4603 67.957 57.7304 66.7778 56.3828Z" fill="white"/>
<path d="M57.9286 65.6616L56.767 64.5H41.5V66.1429H57.9286V65.6616Z" fill="white"/>
<path d="M39.8574 35.75V34.9286C38.4965 34.9286 37.3931 36.032 37.3931 37.3929V38.2143H39.8574V35.75Z" fill="white"/>
</g>
<defs>
<linearGradient id="paint0_linear_677_24" x1="52.5028" y1="105.005" x2="52.5028" y2="0.00469387" gradientUnits="userSpaceOnUse">
<stop stop-color="#2166B0"/>
<stop offset="1" stop-color="#19C1F2"/>
</linearGradient>
<clipPath id="clip0_677_24">
<rect width="46" height="46" fill="white" transform="translate(30 30)"/>
</clipPath>
</defs>
</svg>
