<svg width="105" height="105" viewBox="0 0 105 105" fill="none" xmlns="http://www.w3.org/2000/svg">
<circle cx="52.5" cy="52.5" r="52.5" fill="#D9D9D9"/>
<circle cx="52.5" cy="52.5" r="52.5" fill="url(#paint0_linear_677_22)"/>
<g clip-path="url(#clip0_677_22)">
<path d="M47.25 39.3438C47.25 36.1741 49.8303 33.5938 53 33.5938C56.1697 33.5938 58.75 36.1741 58.75 39.3438V40.7812H62.3438V39.3438C62.3438 34.1831 58.1606 30 53 30C47.8394 30 43.6562 34.1831 43.6562 39.3438V40.7812H47.25V39.3438Z" fill="white"/>
<path d="M63.7812 67.375H57.3125L53 63.0625L48.6875 67.375H42.2188C39.8397 67.375 37.9062 69.3084 37.9062 71.6875C37.9062 74.0666 39.8397 76 42.2188 76H63.7812C66.1603 76 68.0938 74.0666 68.0938 71.6875C68.0938 69.3084 66.1603 67.375 63.7812 67.375ZM45.4531 72.7656C44.858 72.7656 44.375 72.2826 44.375 71.6875C44.375 71.0924 44.858 70.6094 45.4531 70.6094C46.0483 70.6094 46.5312 71.0924 46.5312 71.6875C46.5312 72.2826 46.0483 72.7656 45.4531 72.7656ZM50.4844 72.7656C49.8892 72.7656 49.4062 72.2826 49.4062 71.6875C49.4062 71.0924 49.8892 70.6094 50.4844 70.6094C51.0795 70.6094 51.5625 71.0924 51.5625 71.6875C51.5625 72.2826 51.0795 72.7656 50.4844 72.7656ZM55.5156 72.7656C54.9205 72.7656 54.4375 72.2826 54.4375 71.6875C54.4375 71.0924 54.9205 70.6094 55.5156 70.6094C56.1108 70.6094 56.5938 71.0924 56.5938 71.6875C56.5938 72.2826 56.1108 72.7656 55.5156 72.7656ZM60.5469 72.7656C59.9517 72.7656 59.4688 72.2826 59.4688 71.6875C59.4688 71.0924 59.9517 70.6094 60.5469 70.6094C61.142 70.6094 61.625 71.0924 61.625 71.6875C61.625 72.2826 61.142 72.7656 60.5469 72.7656Z" fill="white"/>
<path d="M35.9635 54.2111C36.118 54.035 36.2812 53.8726 36.4501 53.7188H35.0312C33.6369 53.7188 32.3863 54.2794 31.4734 55.1922C30.5606 56.105 30 57.3556 30 58.75C30 61.5316 32.2497 63.7812 35.0312 63.7812H36.4565C35.1506 62.5946 34.3125 60.7812 34.3125 58.75C34.3125 57.0394 34.8983 55.4279 35.9635 54.2111Z" fill="white"/>
<path d="M74.5266 55.1922C73.6137 54.2794 72.3631 53.7188 70.9687 53.7188H69.5435C70.8494 54.9054 71.6875 56.7188 71.6875 58.75C71.6875 60.4606 71.1017 62.0721 70.0365 63.2889C69.882 63.465 69.7188 63.6274 69.5499 63.7812H70.9687C73.7503 63.7812 76 61.5316 76 58.75C76 57.3556 75.4394 56.105 74.5266 55.1922Z" fill="white"/>
<path d="M45.094 58.75H60.9065C63.688 58.75 65.9377 56.5003 65.9377 53.7188V45.8125C65.9377 44.0753 64.7022 42.6248 63.0627 42.2913V44.375C63.0627 45.9886 62.6696 47.595 61.9264 49.0203C61.7977 49.2661 61.5476 49.4062 61.2881 49.4062C61.1767 49.4062 61.0632 49.3804 60.9561 49.325C60.6046 49.141 60.468 48.7076 60.6513 48.3547C61.2968 47.117 61.6245 45.778 61.6245 44.375V42.2188H44.3752V44.375C44.3752 47.6432 46.1743 50.5519 49.0248 52.0247L49.4137 49.3042C49.464 48.9506 49.7673 48.6875 50.1252 48.6875H55.8752C56.2332 48.6875 56.5365 48.9506 56.5868 49.3042L56.9764 52.0283C57.7548 51.6236 58.4656 51.1039 59.0974 50.4722C59.3784 50.1911 59.8327 50.1911 60.1137 50.4722C60.3947 50.7532 60.3947 51.2082 60.1137 51.4885C59.1204 52.4811 57.9589 53.2415 56.6615 53.7489C55.4885 54.2061 54.2566 54.4375 52.9995 54.4375C51.7424 54.4375 50.5105 54.2061 49.3382 53.7489C45.4498 52.2302 42.937 48.5509 42.937 44.375V42.2913C41.2975 42.6248 40.062 44.0753 40.062 45.8125V53.7188C40.062 56.5003 42.3124 58.75 45.094 58.75Z" fill="white"/>
<path d="M55.2519 50.125H50.7482L50.396 52.5896C52.0865 53.1229 53.9121 53.1229 55.6033 52.5896L55.2519 50.125Z" fill="white"/>
<path d="M67.358 54.0048C67.2063 57.4383 64.3759 60.1875 60.9065 60.1875H45.094C41.6239 60.1875 38.7934 57.4383 38.6418 54.0041C38.0509 54.2449 37.5054 54.6316 37.0447 55.1577C36.2095 56.1122 35.7495 57.3887 35.7495 58.75C35.7495 61.5237 37.6837 63.7812 40.062 63.7812H50.2481L51.9832 62.0462C52.2642 61.7652 52.6315 61.625 52.9995 61.625C53.3675 61.625 53.7355 61.7652 54.0158 62.0462L55.7509 63.7812H65.937C67.0705 63.7812 68.1414 63.2702 68.9543 62.3423C69.7895 61.3878 70.2495 60.1113 70.2495 58.75C70.2495 56.5571 69.0384 54.6927 67.3573 54.0048H67.358Z" fill="white"/>
</g>
<defs>
<linearGradient id="paint0_linear_677_22" x1="52.5028" y1="105.005" x2="52.5028" y2="0.00469387" gradientUnits="userSpaceOnUse">
<stop stop-color="#2166B0"/>
<stop offset="1" stop-color="#19C1F2"/>
</linearGradient>
<clipPath id="clip0_677_22">
<rect width="46" height="46" fill="white" transform="translate(30 30)"/>
</clipPath>
</defs>
</svg>
